<svg width="95" height="73" viewBox="0 0 95 73" fill="none" xmlns="http://www.w3.org/2000/svg">
<g id="Group">
<path id="Vector" fill-rule="evenodd" clip-rule="evenodd" d="M77.6525 0.00487068C78.4399 0.0886207 79.1144 0.628507 79.3949 1.39947L87.6024 22.784C91.6149 25.2823 94.3353 29.7495 94.3353 34.8185V44.6104C94.3353 49.1546 91.653 53.2734 87.9029 55.966V66.5394C87.9029 68.6623 86.4933 70.1937 84.9216 71.2309C83.3498 72.2688 81.4116 72.8969 79.3267 72.8969C76.8255 72.8969 74.5978 72.2965 72.8616 71.2645C71.1253 70.2334 69.6798 68.6623 69.6798 66.5393V58.7535H23.5839V66.573C23.7633 67.3963 23.7678 68.2652 23.45 68.9867C23.0111 69.9828 22.2536 70.7096 21.4063 71.2644C19.7126 72.3748 17.509 72.8967 15.0076 72.8967C12.9228 72.8967 10.9516 72.2948 9.38 71.2644C7.8082 70.2339 6.43238 68.6808 6.43238 66.5728V56.6111C3.03012 53.9519 0 49.5933 0 44.6095V34.8175C0 29.7745 2.68823 25.323 6.66631 22.8159L13.8351 1.46394V1.46469C14.1312 0.576344 14.9418 -0.0136588 15.8451 0.00280409H77.4507C77.518 -0.000934698 77.5845 -0.000934698 77.6518 0.00280409L77.6525 0.00487068ZM76.0112 4.35681H17.2847L11.7572 20.8802C12.4721 20.7628 13.1915 20.676 13.9347 20.676H17.1509V19.9619C17.1509 18.0221 17.7985 16.1341 19.0607 14.6243C20.323 13.1145 22.3323 11.9726 24.6556 11.9726C26.9782 11.9726 28.9545 13.1145 30.2168 14.6243C31.4791 16.1341 32.1594 18.0221 32.1594 19.9619V20.676H80.3994C81.062 20.676 81.7028 20.7523 82.342 20.8458L76.0112 4.35681ZM24.6547 15.9501C23.7612 15.9501 23.0575 16.3374 22.4436 17.0718C21.8304 17.8068 21.4393 18.909 21.4393 19.9619V20.6761H27.8717V19.9619C27.8717 18.9091 27.4469 17.8068 26.833 17.0718C26.2184 16.3375 25.5484 15.9501 24.6548 15.9501H24.6547ZM80.3987 25.028H13.9347C8.69362 25.028 4.28712 29.5011 4.28712 34.82V44.6119C4.28712 47.831 7.01345 51.7486 9.64712 53.5875C11.3909 54.4549 11.8568 54.4033 13.9347 54.4033H80.3987C81.4711 54.4033 83.1176 54.0234 83.1788 53.9613L83.1796 53.9606C83.3359 53.7968 83.5168 53.6592 83.7158 53.553C87.3642 51.7016 90.0471 47.8753 90.0471 44.6112V34.8193C90.0471 29.5004 85.6398 25.0273 80.3994 25.0273L80.3987 25.028ZM83.6149 58.484C82.2809 58.8691 81.0523 58.7562 80.3987 58.7562H73.9664V66.542C73.9664 66.542 74.1286 67.0692 75.0716 67.63C76.0152 68.1908 77.5393 68.6499 79.3264 68.6499C80.4578 68.6499 81.7021 68.2529 82.5426 67.698C83.3824 67.1432 83.6149 66.542 83.6149 66.542V58.484ZM10.7189 58.5184V66.5764C10.7189 66.5764 10.9171 67.1821 11.7576 67.7325C12.5973 68.2828 13.8752 68.6844 15.0075 68.6844C16.7939 68.6844 18.3096 68.2028 19.0275 67.7325C19.3356 67.5305 19.4335 67.4012 19.4627 67.3586V67.3578C19.3572 67.1096 19.3004 66.8441 19.2952 66.5749V58.7554H13.9352C12.8157 58.7554 11.7816 58.7106 10.719 58.5177L10.7189 58.5184Z" fill="white"/>
<path id="Vector_2" fill-rule="evenodd" clip-rule="evenodd" d="M21.4395 30.4683C26.4054 30.4167 29.9581 34.5302 30.0157 39.1723C29.9746 44.601 26.3456 48.885 21.4395 48.9643C16.7943 48.9643 12.8633 44.6123 12.8633 39.1723C12.8469 34.4 16.7853 30.4983 21.4395 30.4683ZM21.4395 34.8202C18.9749 34.8404 17.258 36.1146 17.1519 39.1721C17.1519 42.4362 18.2833 44.6121 21.4395 44.6121C24.6326 44.476 25.7271 42.066 25.7271 39.1721C25.7271 36.884 24.2869 34.8485 21.4395 34.8202Z" fill="white"/>
<path id="Vector_3" fill-rule="evenodd" clip-rule="evenodd" d="M72.8955 30.4683C78.0857 30.4683 81.3953 34.8338 81.4717 39.1723C81.4717 44.6123 78.0147 48.9643 72.8955 48.9643C67.7187 49.0211 64.3178 44.3103 64.3193 39.1723C64.3111 34.4726 68.2997 30.4683 72.8955 30.4683ZM72.8955 34.8202C70.2042 34.8202 68.6079 37.0965 68.6079 39.1721C68.6079 41.9852 69.5718 44.6122 72.8955 44.6122C75.9854 44.6122 77.1832 41.8506 77.1832 39.1721C77.1832 37.5143 76.1153 34.8478 72.8955 34.8202Z" fill="white"/>
<path id="Vector_4" fill-rule="evenodd" clip-rule="evenodd" d="M60.0316 36.9959C60.6052 36.9877 61.1585 37.2135 61.5668 37.6226C61.9751 38.0316 62.2046 38.5894 62.2046 39.1719C62.2046 39.7537 61.9751 40.3115 61.5668 40.7206C61.1585 41.1296 60.6052 41.3554 60.0316 41.3472H34.3036C33.7301 41.3554 33.1767 41.1296 32.7685 40.7206C32.3602 40.3115 32.1306 39.7537 32.1306 39.1719C32.1306 38.5894 32.3602 38.0316 32.7685 37.6226C33.1767 37.2135 33.7301 36.9877 34.3036 36.9959H60.0316Z" fill="white"/>
</g>
</svg>
