<svg width="55" height="71" viewBox="0 0 55 71" fill="none" xmlns="http://www.w3.org/2000/svg">
<g id="Group">
<path id="Vector" d="M54.3946 44.0357L41.9537 31.611V4.84088C41.9537 3.55719 41.4437 2.32584 40.536 1.41824C39.6278 0.510036 38.3965 0 37.1128 0H11.2943C10.0106 0 8.77927 0.510022 7.87167 1.41824C6.96347 2.32591 6.45343 3.55722 6.45343 4.84088V9.68177C6.45343 10.5732 7.17633 11.2956 8.06724 11.2956C8.95816 11.2956 9.68106 10.5732 9.68106 9.68177V4.84088C9.68106 3.94997 10.4034 3.22762 11.2943 3.22762H14.5214L14.5219 4.84088C14.5219 5.69722 14.8618 6.5179 15.4669 7.12301C16.072 7.72812 16.8931 8.06849 17.749 8.06849H30.6578C31.5142 8.06849 32.3349 7.72812 32.94 7.12301C33.5451 6.5179 33.8854 5.69717 33.8854 4.84088V3.22762H37.1125C37.5404 3.22762 37.951 3.39728 38.2536 3.69983C38.5561 4.00293 38.7263 4.41299 38.7263 4.8409V41.2927C38.0769 40.6374 37.1785 40.2905 36.2572 40.3408C35.3355 40.4007 34.4835 40.8535 33.9173 41.5834L32.8848 42.9066C31.6794 44.4577 31.0819 46.3957 31.2035 48.3563C31.3256 50.317 32.1581 52.1658 33.5462 53.5565L34.8369 54.8472H11.295C10.4041 54.8472 9.68175 54.1249 9.68175 53.2334V48.4087C9.68175 47.5178 8.95885 46.7954 8.06794 46.7954C7.17702 46.7954 6.45412 47.5178 6.45412 48.4087V53.2496C6.45412 54.5338 6.96415 55.7652 7.87236 56.6728C8.78003 57.5804 10.0113 58.0905 11.295 58.0905H30.6585V59.7043C30.6596 61.1344 31.1356 62.5235 32.0119 63.6538C32.8883 64.784 34.1147 65.5918 35.4994 65.9489V69.3862C35.4994 69.8141 35.6696 70.2247 35.9722 70.5273C36.2748 70.8298 36.6854 71 37.1133 71H53.25C53.6779 71 54.088 70.8298 54.3911 70.5273C54.6936 70.2247 54.8633 69.8141 54.8633 69.3862V45.1818C54.866 44.7528 54.6974 44.3406 54.3954 44.0358L54.3946 44.0357ZM30.6577 4.84116H17.7489V3.2279H30.6577V4.84116ZM51.6353 67.7726H38.7265V64.5456C38.7265 64.1177 38.5563 63.7071 38.2537 63.4045C37.9512 63.1019 37.5406 62.9318 37.1127 62.9318C36.2569 62.9318 35.4357 62.5919 34.8305 61.9868C34.2254 61.3817 33.8856 60.5606 33.8856 59.7047V58.0909H38.0647L43.2281 63.2705V63.271C43.8613 63.9037 44.8867 63.9037 45.5199 63.271C46.1526 62.6378 46.1526 61.6124 45.5199 60.9792L35.8381 51.2974C34.9888 50.4589 34.4799 49.3356 34.4086 48.1444C34.3372 46.9531 34.7084 45.7775 35.4508 44.8433L36.4676 43.5202L44.0514 51.104C44.6841 51.7367 45.7101 51.7367 46.3427 51.104C46.9754 50.4714 46.9754 49.4454 46.3427 48.8128L41.9535 44.5203V36.1622L51.6353 45.8439L51.6353 67.7726Z" fill="#848484"/>
<path id="Vector_2" d="M8.56804 36.6307C7.84894 38.0889 7.91053 39.8107 8.73175 41.2144C9.55243 42.618 11.0236 43.5161 12.6472 43.604C14.2707 43.6926 15.8306 42.96 16.7987 41.6536C17.7675 40.3477 18.0154 38.6425 17.459 37.1148H19.6535C19.0976 38.6427 19.3456 40.3478 20.3143 41.6536C21.2825 42.96 22.8422 43.6926 24.4658 43.604C26.0893 43.516 27.56 42.618 28.3813 41.2144C29.2019 39.8109 29.2635 38.0889 28.545 36.6307C28.7611 36.4454 28.9134 36.1968 28.9804 35.9207L32.5144 23.0119V23.0114C32.6425 22.524 32.5349 22.0043 32.2237 21.6078C31.9196 21.2118 31.4484 20.9794 30.9492 20.9784H7.71299L6.45414 15.7501C6.27207 15.0126 5.59996 14.5015 4.84088 14.5236H1.61326C0.722343 14.5236 0 15.2465 0 16.1375C0 17.0284 0.722357 17.7513 1.61326 17.7513H3.58198L4.87269 22.9471L8.09976 35.8559H8.1003C8.17378 36.1558 8.33694 36.4259 8.56818 36.6307L8.56804 36.6307ZM14.5225 38.728C14.5225 39.3807 14.1291 39.969 13.5262 40.2191C12.9232 40.4688 12.229 40.3304 11.7676 39.8691C11.3062 39.4077 11.1679 38.7134 11.418 38.1104C11.6676 37.5075 12.256 37.1147 12.9086 37.1147C13.3365 37.1147 13.7471 37.2844 14.0497 37.5869C14.3522 37.89 14.5224 38.3001 14.5224 38.728L14.5225 38.728ZM24.2042 40.3418C23.5516 40.3418 22.9632 39.9485 22.7131 39.3456C22.4635 38.7426 22.6018 38.0489 23.0632 37.5869C23.5246 37.1255 24.2189 36.9878 24.8218 37.2374C25.4248 37.487 25.8175 38.0754 25.8175 38.728C25.8175 39.1559 25.6479 39.5665 25.3453 39.869C25.0422 40.1716 24.6322 40.3418 24.2043 40.3418L24.2042 40.3418ZM28.8354 24.2051L26.2053 33.8869H10.9399L8.5195 24.2051H28.8354Z" fill="#848484"/>
<path id="Vector_3" d="M14.5223 30.6597H22.5903C23.4812 30.6597 24.2041 29.9373 24.2041 29.0459C24.2041 28.155 23.4812 27.4326 22.5903 27.4326H14.5223C13.6309 27.4326 12.9085 28.155 12.9085 29.0459C12.9085 29.9373 13.6309 30.6597 14.5223 30.6597Z" fill="#848484"/>
</g>
</svg>
